<svg xmlns="http://www.w3.org/2000/svg" width="32" height="32" viewBox="0 0 32 32" fill="none">
  <!-- Outer ring -->
  <circle cx="16" cy="16" r="15" fill="#1a1a1a" stroke="#ffd700" stroke-width="2"/>
  
  <!-- Roulette segments -->
  <g transform="translate(16,16)">
    <!-- Red segments -->
    <path d="M 0,0 L 0,-12 A 12,12 0 0,1 8.485,-8.485 Z" fill="#dc2626"/>
    <path d="M 0,0 L 8.485,8.485 A 12,12 0 0,1 0,12 Z" fill="#dc2626"/>
    <path d="M 0,0 L -8.485,-8.485 A 12,12 0 0,1 -12,0 Z" fill="#dc2626"/>
    
    <!-- Black segments -->
    <path d="M 0,0 L 8.485,-8.485 A 12,12 0 0,1 12,0 Z" fill="#000000"/>
    <path d="M 0,0 L 0,12 A 12,12 0 0,1 -8.485,8.485 Z" fill="#000000"/>
    <path d="M 0,0 L -12,0 A 12,12 0 0,1 -8.485,-8.485 Z" fill="#000000"/>
    
    <!-- Green zero -->
    <path d="M 0,0 L 12,0 A 12,12 0 0,1 8.485,8.485 Z" fill="#16a34a"/>
    <path d="M 0,0 L -8.485,8.485 A 12,12 0 0,1 0,-12 Z" fill="#16a34a"/>
  </g>
  
  <!-- Center circle -->
  <circle cx="16" cy="16" r="3" fill="#ffd700"/>
  
  <!-- Center dot -->
  <circle cx="16" cy="16" r="1" fill="#1a1a1a"/>
</svg>